<svg height="24" viewBox="0 0 24 24" width="24" xmlns="http://www.w3.org/2000/svg"><path d="m17 6v10.2792476l1.5 1.5110389 1.5-1.5110389v-10.2792476zm0-1h3v-1.98528137h-3zm4 2v9.4852814c0 .1319731-.0521764.2585942-.1451528.3522548l-2 2.0147186c-.1955544.1969936-.51414.1969936-.7096944 0l-2-2.0147186c-.0929764-.0936606-.1451528-.2202817-.1451528-.3522548v-2.4852814h-.5c-.8284271 0-1.5-.6715729-1.5-1.5v-3c0-.82842712.6715729-1.5 1.5-1.5h.5v-1h-10v7.5c0 .2761424-.22385763.5-.5.5h-.5c-1.65685425 0-3 1.3431458-3 3s1.34314575 3 3 3h17v-14zm0-1h1.5c.2761424 0 .5.22385763.5.5v15c0 .2761424-.2238576.5-.5.5h-17.5c-2.209139 0-4-1.790861-4-4v-11.5c0-2.48528137 2.01471863-4.5 4.5-4.5.27614237 0 .5.22385763.5.5v3.5h10v-3.48528137c0-.27614238.2238576-.5.5-.5h4c.2761424 0 .5.22385762.5.5zm-5 3h-.5c-.2761424 0-.5.22385763-.5.5v3c0 .2761424.2238576.5.5.5h.5zm-14 6.3541756c.73294445-.8304207 1.80530747-1.3541756 3-1.3541756v-10.96455557c-1.69614707.24261483-3 1.70131962-3 3.46455557zm6.5-7.3541756h3c.8284271 0 1.5.67157288 1.5 1.5v3c0 .8284271-.6715729 1.5-1.5 1.5h-3c-.82842712 0-1.5-.6715729-1.5-1.5v-3c0-.82842712.67157288-1.5 1.5-1.5zm0 1c-.27614237 0-.5.22385763-.5.5v3c0 .2761424.22385763.5.5.5h3c.2761424 0 .5-.2238576.5-.5v-3c0-.27614237-.2238576-.5-.5-.5zm-1 8c-.27614237 0-.5-.2238576-.5-.5s.22385763-.5.5-.5h7c.2761424 0 .5.2238576.5.5s-.2238576.5-.5.5zm0 2c-.27614237 0-.5-.2238576-.5-.5s.22385763-.5.5-.5h8c.2761424 0 .5.2238576.5.5s-.2238576.5-.5.5z"/></svg>