<svg viewBox="0 0 400 300" xmlns="http://www.w3.org/2000/svg"><path d="m280.69 88.78v96.62a8.42 8.42 0 0 1 -8.42 8.42h-139.27a8.43 8.43 0 0 1 -6.14-2.66 8.33 8.33 0 0 1 -2.28-5.76v-96.62a8.41 8.41 0 0 1 8.42-8.41h139.27a8.41 8.41 0 0 1 8.42 8.41z" fill="#68e1fd"/><path d="m272.27 194.82h-139.27a9.43 9.43 0 0 1 -9.42-9.42v-96.62a9.42 9.42 0 0 1 9.42-9.41h139.27a9.43 9.43 0 0 1 9.42 9.41v96.62a9.44 9.44 0 0 1 -9.42 9.42zm-139.27-113.45a7.42 7.42 0 0 0 -7.42 7.41v96.62a7.33 7.33 0 0 0 2 5.07 7.46 7.46 0 0 0 5.41 2.35h139.28a7.43 7.43 0 0 0 7.42-7.42v-96.62a7.42 7.42 0 0 0 -7.42-7.41z" fill="#093f68"/><path d="m132.94 88.11h139.33v82.53h-139.33z" fill="#093f68"/><path d="m272.27 171.64h-139.33a1 1 0 0 1 -1-1v-82.53a1 1 0 0 1 1-1h139.33a1 1 0 0 1 1 1v82.53a1 1 0 0 1 -1 1zm-138.33-2h137.33v-80.53h-137.33z" fill="#093f68"/><path d="m221 193.82h-36.77s3.37 10.83-10.37 23h57.5c-13.75-12.17-10.36-23-10.36-23z" fill="#68e1fd"/><path d="m231.36 217.83h-57.5a1 1 0 0 1 -.94-.64 1 1 0 0 1 .28-1.11c13.11-11.62 10.1-21.86 10.07-22a1 1 0 0 1 .15-.89 1 1 0 0 1 .81-.41h36.77a1 1 0 0 1 .81.41 1 1 0 0 1 .15.89c-.13.42-3 10.41 10.07 22a1 1 0 0 1 .27 1.11 1 1 0 0 1 -.94.64zm-55-2h52.44c-9.59-9.46-9.53-17.86-9.07-21h-34.28c.46 3.17.55 11.54-9.06 21z" fill="#093f68"/><circle cx="202.61" cy="181.39" fill="#093f68" r="3.65"/><path d="m202.61 186.05a4.66 4.66 0 1 1 4.65-4.66 4.66 4.66 0 0 1 -4.65 4.66zm0-7.31a2.66 2.66 0 1 0 2.65 2.65 2.65 2.65 0 0 0 -2.65-2.65z" fill="#093f68"/><rect fill="#68e1fd" height="5.44" rx="2.72" width="72.88" x="166.17" y="216.83"/><path d="m236.33 223.28h-67.44a3.73 3.73 0 0 1 0-7.45h67.44a3.73 3.73 0 0 1 0 7.45zm-67.44-5.45a1.73 1.73 0 0 0 0 3.45h67.44a1.73 1.73 0 0 0 0-3.45z" fill="#093f68"/><path d="m115.31 76.84h139.33v82.52h-139.33z" fill="#68e1fd"/><path d="m254.64 160.36h-139.33a1 1 0 0 1 -1-1v-82.52a1 1 0 0 1 1-1h139.33a1 1 0 0 1 1 1v82.52a1 1 0 0 1 -1 1zm-138.33-2h137.33v-80.52h-137.33z" fill="#093f68"/><path d="m254.64 76.84v82.52h-61.1a70.82 70.82 0 0 1 0-82.52z" fill="#fff"/><g fill="#093f68"><path d="m254.64 160.36h-61.1a1 1 0 0 1 -.81-.42 71.8 71.8 0 0 1 0-83.68 1 1 0 0 1 .81-.42h61.12a1 1 0 0 1 1 1v82.52a1 1 0 0 1 -1.02 1zm-60.59-2h59.59v-80.52h-59.64a69.83 69.83 0 0 0 0 80.52z"/><path d="m150 97.38h-20.5a1 1 0 0 1 0-2h20.5a1 1 0 0 1 0 2z"/><path d="m163.27 126.3h-33.81a1 1 0 0 1 0-2h33.81a1 1 0 0 1 0 2z"/><path d="m163.27 116.83h-33.81a1 1 0 0 1 0-2h33.81a1 1 0 0 1 0 2z"/></g><rect fill="#ffbc0e" height="7.71" rx="3.86" width="33.8" x="129.46" y="136.98"/><path d="m159.41 145.69h-26.09a4.86 4.86 0 1 1 0-9.71h26.09a4.86 4.86 0 1 1 0 9.71zm-26.09-7.69a2.86 2.86 0 1 0 0 5.71h26.09a2.86 2.86 0 1 0 0-5.71z" fill="#093f68"/><circle cx="124.24" cy="84.31" fill="#f56132" r="2.38"/><path d="m124.24 81.94a2.38 2.38 0 1 1 -2.37 2.37 2.37 2.37 0 0 1 2.37-2.37m0-1.5a3.88 3.88 0 1 0 3.88 3.87 3.88 3.88 0 0 0 -3.88-3.87z" fill="#093f68"/><circle cx="134.22" cy="84.31" fill="#ffbc0e" r="2.38"/><path d="m134.22 81.94a2.38 2.38 0 1 1 -2.38 2.37 2.37 2.37 0 0 1 2.38-2.37m0-1.5a3.88 3.88 0 1 0 3.87 3.87 3.88 3.88 0 0 0 -3.87-3.87z" fill="#093f68"/><circle cx="144.19" cy="84.31" fill="#70cc40" r="2.38"/><path d="m144.19 81.94a2.38 2.38 0 1 1 -2.38 2.37 2.38 2.38 0 0 1 2.38-2.37m0-1.5a3.88 3.88 0 1 0 3.88 3.87 3.88 3.88 0 0 0 -3.88-3.87z" fill="#093f68"/><path d="m185 129a1 1 0 0 1 -.66-.24 1 1 0 0 1 -.1-1.41l22.93-26.47a1.08 1.08 0 0 1 .78-.34 1 1 0 0 1 .77.38l20.56 26.18a1 1 0 0 1 -.17 1.41 1 1 0 0 1 -1.4-.17l-19.82-25.23-22.14 25.55a1 1 0 0 1 -.75.34z" fill="#dfeaef"/><path d="m251 126.3a1 1 0 0 1 -.8-.41l-13-17.41-13.33 12.41a1 1 0 1 1 -1.36-1.46l14.14-13.17a1 1 0 0 1 .78-.27 1 1 0 0 1 .71.4l13.66 18.31a1 1 0 0 1 -.2 1.4 1 1 0 0 1 -.6.2z" fill="#dfeaef"/><path d="m244.73 87.69h-18.93a1 1 0 0 1 0-2h18.93a1 1 0 0 1 0 2z" fill="#dfeaef"/><path d="m267.39 155.46-25.3-6.7a.86.86 0 0 0 -1.05 1.05l6.7 25.3a.86.86 0 0 0 1.44.39l5.49-5.49 11.13 11.13a.86.86 0 0 0 1.22 0l6.4-6.4a.86.86 0 0 0 0-1.22l-11.13-11.13 5.49-5.49a.86.86 0 0 0 -.39-1.44z" fill="#fff"/><path d="m266.41 182.39a1.86 1.86 0 0 1 -1.31-.54l-10.43-10.43-4.78 4.79a1.87 1.87 0 0 1 -1.8.48 1.84 1.84 0 0 1 -1.31-1.32l-6.71-25.31a1.86 1.86 0 0 1 2.28-2.27l25.3 6.71a1.86 1.86 0 0 1 .84 3.11l-4.78 4.78 10.42 10.42a1.88 1.88 0 0 1 0 2.64l-6.4 6.4a1.88 1.88 0 0 1 -1.32.54zm-11.74-13.39a1 1 0 0 1 .71.29l11 11 6.21-6.2-11-11a1 1 0 0 1 0-1.41l5.31-5.32-24.84-6.59 6.59 24.84 5.35-5.31a1 1 0 0 1 .67-.3z" fill="#093f68"/><path d="m282.32 223.28h-164.64a1 1 0 0 1 0-2h164.64a1 1 0 0 1 0 2z" fill="#093f68"/></svg>