<svg enable-background="new 0 0 100 100" height="100" viewBox="0 0 100 100" width="100" xmlns="http://www.w3.org/2000/svg"><g fill="#010101"><path d="m71.625 0h-26.625l5 8h17v25h25v59h-61v-48.856l-8-.869v57.725h77v-70.526zm1.375 27v-13.62l13.163 13.62z"/><path d="m39 48h44v4h-44z"/><path d="m39 62h44v4h-44z"/><path d="m39 76h44v4h-44z"/><path d="m42.904 31.49c3.276-3.456 4.802-7.958 4.682-12.499-.248-9.389-8.443-17.16-17.836-16.911-9.468.25-17.243 8.286-16.992 17.759.108 4.069 1.619 8.099 4.447 11.314l-7.815 3.416-7.846 8.356c-.606.796-.89 1.822-.863 2.84.066 2.502 2.239 4.717 4.821 4.649 1.017-.027 1.948-.363 2.792-1.012l7.924-8.352 3.006-7.915c3.359 2.652 7.387 3.955 11.453 3.848 4.463-.118 8.878-1.958 12.227-5.493zm-20.077-4.169c-2.169-2.054-3.259-4.769-3.334-7.586-.151-5.712 4.571-10.772 10.437-10.926 5.717-.151 10.774 4.572 10.928 10.36.157 5.95-4.566 10.932-10.361 11.085-2.736.073-5.504-.952-7.67-2.933z"/></g></svg>