<svg height="64" preserveAspectRatio="none" viewBox="0 0 64 64" width="64" xmlns="http://www.w3.org/2000/svg"><path d="m12.3544922 6.5126953-5.9023438 9.1025391v6.1015625c0 1.2128906.1855469 1.9980469.6005859 2.5429688.3388672.4453125 1.0068359.9775391 2.2587891.9775391h4.6660156c1.5791016 0 2.453125-.2412109 3.0175781-.8349609.5253906-.5546875.7597656-1.3828125.7597656-2.6855469v-3.453125c0-1.2734375-.2128906-2.0888672-.6914063-2.6484375-.484375-.5644531-1.2275391-.8369141-2.5-.8974609l4.5253906-8.2050781h-6.7343748z"/><path d="m28.6357422 14.7167969 4.5253906-8.2041016h-6.7294922l-5.9814453 9.0976563v6.1064453c0 1.1933594.1923828 1.9746094.6240234 2.5332031.3476563.4501953 1.0302734.9873047 2.3085938.9873047h4.6660156c1.5537109 0 2.4130859-.2363281 2.9619141-.8164063.5195313-.5478516.7421875-1.3574219.7421875-2.7041016v-3.453125c0-1.2568359-.1992188-2.0634766-.6445313-2.6152344-.5605468-.6923827-1.4882812-.8857421-2.4726562-.9316405z"/></svg>